<mxfile host="app.diagrams.net" modified="2024-01-03T15:39:48.268Z" agent="Mozilla/5.0 (X11; Linux x86_64; rv:121.0) Gecko/20100101 Firefox/121.0" etag="kgax4YnLy8W-11SpeJKT" version="22.1.16" type="device">
  <diagram name="Page-1" id="-YvmSn2N4ls3r1BLLdGf">
    <mxGraphModel dx="2049" dy="2229" grid="1" gridSize="10" guides="0" tooltips="1" connect="1" arrows="1" fold="1" page="1" pageScale="1" pageWidth="850" pageHeight="1100" math="0" shadow="0">
      <root>
        <mxCell id="0" />
        <mxCell id="1" parent="0" />
        <mxCell id="E-iUGjEKgFI-d_gBE7TA-1" value="" style="ellipse;shape=cloud;whiteSpace=wrap;html=1;" vertex="1" parent="1">
          <mxGeometry x="10" y="-60" width="767.02" height="430" as="geometry" />
        </mxCell>
        <mxCell id="E-iUGjEKgFI-d_gBE7TA-8" value="" style="endArrow=classic;html=1;rounded=0;startArrow=none;startFill=0;" edge="1" parent="1">
          <mxGeometry width="50" height="50" relative="1" as="geometry">
            <mxPoint x="320" y="650" as="sourcePoint" />
            <mxPoint x="360" y="440" as="targetPoint" />
            <Array as="points">
              <mxPoint x="320" y="440" />
            </Array>
          </mxGeometry>
        </mxCell>
        <mxCell id="E-iUGjEKgFI-d_gBE7TA-9" value="Subscribe to price field" style="text;html=1;strokeColor=none;fillColor=none;align=center;verticalAlign=middle;whiteSpace=wrap;rounded=0;rotation=0;" vertex="1" parent="1">
          <mxGeometry x="250" y="470" width="55" height="30" as="geometry" />
        </mxCell>
        <mxCell id="E-iUGjEKgFI-d_gBE7TA-11" value="" style="endArrow=classic;html=1;rounded=0;startArrow=none;startFill=0;" edge="1" parent="1">
          <mxGeometry width="50" height="50" relative="1" as="geometry">
            <mxPoint x="480" y="440" as="sourcePoint" />
            <mxPoint x="520" y="650" as="targetPoint" />
            <Array as="points">
              <mxPoint x="520" y="440" />
            </Array>
          </mxGeometry>
        </mxCell>
        <mxCell id="E-iUGjEKgFI-d_gBE7TA-12" value="Notify on price change" style="text;html=1;strokeColor=none;fillColor=none;align=center;verticalAlign=middle;whiteSpace=wrap;rounded=0;" vertex="1" parent="1">
          <mxGeometry x="530" y="470" width="70" height="30" as="geometry" />
        </mxCell>
        <mxCell id="E-iUGjEKgFI-d_gBE7TA-23" value="Internet" style="ellipse;shape=cloud;whiteSpace=wrap;html=1;" vertex="1" parent="1">
          <mxGeometry x="70" y="-240" width="195" height="130" as="geometry" />
        </mxCell>
        <mxCell id="E-iUGjEKgFI-d_gBE7TA-24" value="" style="image;aspect=fixed;perimeter=ellipsePerimeter;html=1;align=center;shadow=0;dashed=0;spacingTop=3;image=img/lib/active_directory/internet_globe.svg;" vertex="1" parent="1">
          <mxGeometry x="200" y="-240" width="50" height="50" as="geometry" />
        </mxCell>
        <mxCell id="E-iUGjEKgFI-d_gBE7TA-26" value="Track price" style="text;html=1;strokeColor=none;fillColor=none;align=center;verticalAlign=middle;whiteSpace=wrap;rounded=0;" vertex="1" parent="1">
          <mxGeometry x="220" y="-80" width="90" height="30" as="geometry" />
        </mxCell>
        <mxCell id="E-iUGjEKgFI-d_gBE7TA-28" value="" style="endArrow=classic;startArrow=classic;html=1;rounded=0;" edge="1" parent="1">
          <mxGeometry width="50" height="50" relative="1" as="geometry">
            <mxPoint x="240" y="40" as="sourcePoint" />
            <mxPoint x="210" y="-110" as="targetPoint" />
          </mxGeometry>
        </mxCell>
        <mxCell id="E-iUGjEKgFI-d_gBE7TA-39" value="NGINX Reverse Proxy" style="html=1;dashed=0;whiteSpace=wrap;" vertex="1" parent="1">
          <mxGeometry x="370" y="420" width="100" height="50" as="geometry" />
        </mxCell>
        <mxCell id="E-iUGjEKgFI-d_gBE7TA-41" value="" style="endArrow=classic;startArrow=classic;html=1;rounded=0;entryX=0.521;entryY=0.977;entryDx=0;entryDy=0;entryPerimeter=0;" edge="1" parent="1">
          <mxGeometry width="50" height="50" relative="1" as="geometry">
            <mxPoint x="420.38" y="410" as="sourcePoint" />
            <mxPoint x="419.99742000000003" y="360.1100000000001" as="targetPoint" />
            <Array as="points">
              <mxPoint x="420.38" y="380" />
            </Array>
          </mxGeometry>
        </mxCell>
        <mxCell id="E-iUGjEKgFI-d_gBE7TA-43" value="Login" style="text;html=1;strokeColor=none;fillColor=none;align=center;verticalAlign=middle;whiteSpace=wrap;rounded=0;" vertex="1" parent="1">
          <mxGeometry x="250" y="530" width="60" height="30" as="geometry" />
        </mxCell>
        <mxCell id="E-iUGjEKgFI-d_gBE7TA-45" value="Access dashboard" style="text;html=1;strokeColor=none;fillColor=none;align=center;verticalAlign=middle;whiteSpace=wrap;rounded=0;" vertex="1" parent="1">
          <mxGeometry x="540" y="540" width="60" height="30" as="geometry" />
        </mxCell>
        <mxCell id="E-iUGjEKgFI-d_gBE7TA-47" value="" style="group" vertex="1" connectable="0" parent="1">
          <mxGeometry x="80" y="670" width="720" height="130" as="geometry" />
        </mxCell>
        <mxCell id="E-iUGjEKgFI-d_gBE7TA-46" value="" style="rounded=0;whiteSpace=wrap;html=1;" vertex="1" parent="E-iUGjEKgFI-d_gBE7TA-47">
          <mxGeometry width="720" height="130" as="geometry" />
        </mxCell>
        <mxCell id="E-iUGjEKgFI-d_gBE7TA-3" value="User" style="shape=umlActor;verticalLabelPosition=bottom;verticalAlign=top;html=1;outlineConnect=0;" vertex="1" parent="E-iUGjEKgFI-d_gBE7TA-47">
          <mxGeometry x="60" y="20" width="35" height="70" as="geometry" />
        </mxCell>
        <mxCell id="E-iUGjEKgFI-d_gBE7TA-4" value="User" style="shape=umlActor;verticalLabelPosition=bottom;verticalAlign=top;html=1;outlineConnect=0;" vertex="1" parent="E-iUGjEKgFI-d_gBE7TA-47">
          <mxGeometry x="130" y="20" width="35" height="70" as="geometry" />
        </mxCell>
        <mxCell id="E-iUGjEKgFI-d_gBE7TA-5" value="User" style="shape=umlActor;verticalLabelPosition=bottom;verticalAlign=top;html=1;outlineConnect=0;" vertex="1" parent="E-iUGjEKgFI-d_gBE7TA-47">
          <mxGeometry x="605.12" y="20" width="35" height="70" as="geometry" />
        </mxCell>
        <mxCell id="E-iUGjEKgFI-d_gBE7TA-6" value="&lt;font style=&quot;font-size: 40px;&quot;&gt;...&lt;/font&gt;" style="text;html=1;strokeColor=none;fillColor=none;align=center;verticalAlign=middle;whiteSpace=wrap;rounded=0;" vertex="1" parent="E-iUGjEKgFI-d_gBE7TA-47">
          <mxGeometry x="340" y="40" width="60" height="30" as="geometry" />
        </mxCell>
        <mxCell id="E-iUGjEKgFI-d_gBE7TA-48" value="" style="group" vertex="1" connectable="0" parent="1">
          <mxGeometry x="190" y="60" width="430" height="260" as="geometry" />
        </mxCell>
        <mxCell id="E-iUGjEKgFI-d_gBE7TA-2" value="SQLite" style="shape=cylinder3;whiteSpace=wrap;html=1;boundedLbl=1;backgroundOutline=1;size=15;" vertex="1" parent="E-iUGjEKgFI-d_gBE7TA-48">
          <mxGeometry x="180" y="30" width="60" height="80" as="geometry" />
        </mxCell>
        <mxCell id="E-iUGjEKgFI-d_gBE7TA-14" value="PriceTracker service" style="html=1;dashed=0;whiteSpace=wrap;" vertex="1" parent="E-iUGjEKgFI-d_gBE7TA-48">
          <mxGeometry width="100" height="50" as="geometry" />
        </mxCell>
        <mxCell id="E-iUGjEKgFI-d_gBE7TA-17" value="Dashboard" style="html=1;dashed=0;whiteSpace=wrap;" vertex="1" parent="E-iUGjEKgFI-d_gBE7TA-48">
          <mxGeometry x="165" y="210" width="100" height="50" as="geometry" />
        </mxCell>
        <mxCell id="E-iUGjEKgFI-d_gBE7TA-18" value="" style="endArrow=none;startArrow=classic;html=1;rounded=0;exitX=0.511;exitY=0.733;exitDx=0;exitDy=0;exitPerimeter=0;entryX=0.511;entryY=0.556;entryDx=0;entryDy=0;entryPerimeter=0;endFill=0;" edge="1" parent="E-iUGjEKgFI-d_gBE7TA-48" source="E-iUGjEKgFI-d_gBE7TA-1" target="E-iUGjEKgFI-d_gBE7TA-1">
          <mxGeometry width="50" height="50" relative="1" as="geometry">
            <mxPoint x="320" y="210" as="sourcePoint" />
            <mxPoint x="380" y="150" as="targetPoint" />
          </mxGeometry>
        </mxCell>
        <mxCell id="E-iUGjEKgFI-d_gBE7TA-19" value="" style="endArrow=classic;startArrow=none;html=1;rounded=0;exitX=0.386;exitY=0.356;exitDx=0;exitDy=0;exitPerimeter=0;entryX=0.461;entryY=0.444;entryDx=0;entryDy=0;entryPerimeter=0;startFill=0;" edge="1" parent="E-iUGjEKgFI-d_gBE7TA-48">
          <mxGeometry width="50" height="50" relative="1" as="geometry">
            <mxPoint x="109.9997200000002" y="29.99999999999993" as="sourcePoint" />
            <mxPoint x="167.52622000000014" y="67.83999999999985" as="targetPoint" />
          </mxGeometry>
        </mxCell>
        <mxCell id="E-iUGjEKgFI-d_gBE7TA-29" value="Update price" style="text;html=1;strokeColor=none;fillColor=none;align=center;verticalAlign=middle;whiteSpace=wrap;rounded=0;" vertex="1" parent="E-iUGjEKgFI-d_gBE7TA-48">
          <mxGeometry x="120" y="10" width="60" height="30" as="geometry" />
        </mxCell>
        <mxCell id="E-iUGjEKgFI-d_gBE7TA-30" value="Fetch visualization data" style="text;html=1;strokeColor=none;fillColor=none;align=center;verticalAlign=middle;whiteSpace=wrap;rounded=0;" vertex="1" parent="E-iUGjEKgFI-d_gBE7TA-48">
          <mxGeometry x="140" y="140" width="60" height="30" as="geometry" />
        </mxCell>
        <mxCell id="E-iUGjEKgFI-d_gBE7TA-33" value="Notification service" style="html=1;dashed=0;whiteSpace=wrap;" vertex="1" parent="E-iUGjEKgFI-d_gBE7TA-48">
          <mxGeometry x="330" y="50" width="100" height="50" as="geometry" />
        </mxCell>
        <mxCell id="E-iUGjEKgFI-d_gBE7TA-35" value="" style="endArrow=classic;html=1;rounded=0;entryX=0.717;entryY=0.558;entryDx=0;entryDy=0;entryPerimeter=0;exitX=0.6;exitY=0.814;exitDx=0;exitDy=0;exitPerimeter=0;" edge="1" parent="E-iUGjEKgFI-d_gBE7TA-48" source="E-iUGjEKgFI-d_gBE7TA-1" target="E-iUGjEKgFI-d_gBE7TA-1">
          <mxGeometry width="50" height="50" relative="1" as="geometry">
            <mxPoint x="240" y="180.06" as="sourcePoint" />
            <mxPoint x="379.9245999999998" y="140.00000000000006" as="targetPoint" />
          </mxGeometry>
        </mxCell>
        <mxCell id="E-iUGjEKgFI-d_gBE7TA-36" value="Update notification settings" style="text;html=1;strokeColor=none;fillColor=none;align=center;verticalAlign=middle;whiteSpace=wrap;rounded=0;" vertex="1" parent="E-iUGjEKgFI-d_gBE7TA-48">
          <mxGeometry x="340" y="170" width="60" height="30" as="geometry" />
        </mxCell>
        <mxCell id="E-iUGjEKgFI-d_gBE7TA-37" value="" style="endArrow=classic;html=1;rounded=0;exitX=0.561;exitY=0.465;exitDx=0;exitDy=0;exitPerimeter=0;entryX=0.652;entryY=0.465;entryDx=0;entryDy=0;entryPerimeter=0;" edge="1" parent="E-iUGjEKgFI-d_gBE7TA-48" source="E-iUGjEKgFI-d_gBE7TA-1" target="E-iUGjEKgFI-d_gBE7TA-1">
          <mxGeometry width="50" height="50" relative="1" as="geometry">
            <mxPoint x="240" y="160" as="sourcePoint" />
            <mxPoint x="290" y="110" as="targetPoint" />
          </mxGeometry>
        </mxCell>
      </root>
    </mxGraphModel>
  </diagram>
</mxfile>
